# xmcd
#
# Track frame offsets:
#	150
#	28992
#	49250
#	75262
#	94292
#	118227
#	132790
#	151705
#	172117
#	197260
#	227660
#
# Disc length: 3526 seconds
#
# Revision: 1
# Processed by: cddbd v1.4PL0 Copyright (c) Steve Scherf et al.
# Submitted via: EasyCDDAExtractor 5.1.0
#
DISCID=860dc40b
DTITLE=Bobby Blue Bland - Blues At Midnight
DYEAR=2003
DGENRE=Blues
TTITLE0=Where Do I Go From Here
TTITLE1=I Caught The Blues From Someone Else
TTITLE2=You Hit The Nail On The Head
TTITLE3=I've Got The Blues At Midnight
TTITLE4=Baby What's Wrong With You
TTITLE5=What A Wonderful World
TTITLE6=My Sunday's Comin' Soon
TTITLE7=This Man-Woman Thing
TTITLE8=The Only Thing Missing Is You
TTITLE9=I'm A Blues Man
TTITLE10=Ghetto Nights
EXTD=
EXTT0=
EXTT1=
EXTT2=
EXTT3=
EXTT4=
EXTT5=
EXTT6=
EXTT7=
EXTT8=
EXTT9=
EXTT10=
PLAYORDER=
